<svg enable-background="new 0 0 167.131 199.636" height="199.64" viewBox="0 0 167.131 199.636" width="167.13" xml:space="preserve" xmlns="http://www.w3.org/2000/svg">
<g fill-rule="evenodd">
	<path d="m108.96.587c-1.06,1.466-3.07-.554 0,0z"></path>
	<path d="m114.24,1.547c-.649,2.075-2.691.258-3.841,0 .33-1.753 3.3-.87 3.84,0z"></path>
	<path d="m112.8,8.267c1.159,1.115-.75,1.285-.96,2.4 1.489.05 1.37-1.51 3.36-.96-1.418,3.862-5.665,4.896-9.12,6.72-.925-1.537.283-2.422-.48-4.32 2.42-1.254 4.47-2.886 7.2-3.84z"></path>
	<path d="m117.12,11.627c.24,2.321-1.426,2.734-2.88,3.36-1.334,1.359-4.056,3.442-5.761,2.88 2.16-2.805 5.15-4.77 8.64-6.24z"></path>
	<path d="m87.84,14.987c1.4-.706 1.4,2.146 0,1.44v-1.44z" fill="#fff"></path>
	<path d="m85.92,16.427c.816-.176.906.375.96.96-.408-.088-.453.188-.48.48-.563-.077-.405-.875-.48-1.44z" fill="#fff"></path>
	<path d="m134.4,19.307c1.089,1.558-1.857,2.4-2.88,3.36-.831,2.368-3.136,3.264-4.319,5.28-4.122.044-6.261,4.612-10.561,2.88 2.077-2.706 5.563-2.574 8.16-4.32 3.253-2.188 5.476-5.569 8.64-7.68 .56-.078.85.106.96.48z"></path>
	<path d="m65.28,20.747c.726-1.695.911.884.48.96-.284.05-.603-.674-.48-.96z" fill="#fff"></path>
	<path d="m119.52,25.067c-.773,3.293-6.141,4.329-8.64,4.32 .6-3.466 5.53-4.938 8.64-4.32z"></path>
	<path d="m139.2,25.547c4.155-.017 1.937,9.258-1.44,9.12 .13-3.392.73-6.312 1.44-9.12z"></path>
	<path d="m107.52,30.347c.002,2.26-2.293,4.181-4.319,2.88 .37-2.028 2.24-2.56 4.32-2.88z"></path>
	<path d="m142.56,30.827c2.112,1.248 4.053,2.667 3.36,6.72 1.544,2.672 2.068,7.173.479,9.6-1.834-1.536-1.306.047-3.84,0-.661-.619-.475-2.085-.479-3.36h1.439c.361-1.801-1.833-1.046-1.92-2.4 .3-1.78 1.35-2.811 1.92-4.32-.726-.907-1.646,2.031-3.359.48 .37-2.673 1.68-4.397 2.4-6.72z"></path>
	<path d="m151.2,35.627c-.748,1.812-1.013,4.108-2.881,4.8-.43-1.29.25-5.025 2.88-4.8z"></path>
	<path d="m141.6,45.227c.062.861-.588,1.012-.479,1.92-1.39-.086-1.16-2.282.48-1.92z"></path>
	<path d="m67.68,60.587c.205,2.605-1.219,3.581-2.88,4.32 .935-1.465.391-4.408 2.88-4.32z"></path>
	<path d="m158.88,63.947c-2.596-.779-5.979,2.802-6.72,6.72-1.238-2.417.042-4.791 0-6.72 2-2.19 5.15-3.186 6.72,0z" fill="#fff"></path>
	<path d="m126.72,72.107c.25.71.71,1.209.96,1.92 4.27-.375 9.025,2.775 10.08,7.2h-2.4c-3.021-2.431-8.496-3.834-13.439-2.88 2.255,2.751 7.26,3.014 11.04,5.28-.914,1.967-.53,3.234-1.92,5.28-1.122-.158-1.983-.577-2.88-.96-.204-1.003.328-1.271.479-1.92-.339-1.261-2.253-.947-2.88-1.92-1.334.266-1.344,1.856-1.92,2.88-3.943,2.147-7.664-.721-10.56-2.4 .77,3.402 5.384,4.387 8.159,4.32-1.236,4.307-9.528,3.202-10.08-1.44-1.649.21-2.69-.189-3.84-.48 .235-2.244.569-3.124-.479-4.8-2.834.274-4.951-.169-5.76-1.92 .822-2.217 4.62-1.459 5.76-3.36 6.691-.021 11.064-6.417 17.279-3.84 1.48.357.92-1.318 2.4-.96z"></path>
	<path d="m146.88,76.427c1.325.115 1.095,1.785 1.92,2.4-.312.488-1.104.497-.96,1.44-.918-.202-2.066-.174-1.92-1.44 .408-.088.452.188.479.48 1.06-.06.2-2.036.48-2.88z" fill="#fff"></path>
	<path d="m76.32,82.187c-2.054-.607-2.374.035-4.8,0 .265-1.975 4.394-1.729 4.8,0z" fill="#fff"></path>
	<path d="m102.24,85.547c2.825.694 3.585,3.454 4.8,5.76-3.01-.511-4.58-2.465-4.8-5.76z"></path>
	<path d="m66.72,86.507c3.347,2.895 3.849,7.785 11.04,5.76 1.352-.485-.132-2.039 0-2.88 4.355,1.054 5.503-2.771 8.64-1.44-.068,1.852-1.622,2.218-1.44,4.32 2.401.159 2.364,2.756 4.8,2.88 .374,3.253-.655,5.104-.479,8.16-.611.609-1.261,1.46-1.92,2.4-.447.637-.937,2.317-1.44,2.88-1.8,2.014-5.941,2.79-5.28,7.68 .29,2.143 1.81,2.222 2.88,4.32-4.389-.869-3.888,3.151-7.68,2.88 1.039-2.357 1.94-4.483.48-7.2-2.537,1.143-1.951,5.409-2.88,8.16-5.242-1.968-2.838-13.315-4.8-18.72-2.801-2.206-2.437-9.98-1.92-13.92-1.921-.319-1.229-3.25-2.4-4.32 .906-.216 2.892.65 2.399-.963z" fill="#fff"></path>
	<path d="m155.04,92.267c2.031,1.121-.519,4.547-1.44,5.76-2.52-1.611.58-4.491 1.44-5.76z"></path>
	<path d="m110.4,107.15c4.677,3.164 8.079,7.602 14.4,9.12 1.217,1.344 2.626,2.494 3.84,3.84-.243,5.313.751,10.667-1.439,15.84-2.135-4.25-.694-9.175-1.921-14.399-3.866-2.345-9.108-3.323-13.439-6.24-.354-1.667-1.457-2.54 0-3.84-.872-1.848-3.756-1.684-4.8-3.36 .07-1.38 2-.88 3.36-.96z"></path>
	<path d="m136.32,121.07c-1.441-.159-2.466-.734-2.88-1.92 1.45-1.31 2.7.49 2.88,1.92z"></path>
	<path d="m71.52,124.91c2.314.958 3.232,2.803 2.4,5.76-1.415-1.31-2.49-2.95-2.4-5.76z" fill="#fff"></path>
	<path d="m107.04,129.23c-1.039,1.977-4.025.318-5.76.48-1.148.106-1.916.9-2.881.96-2.616.16-4.546-.898-6.239-.48-.784-2.438 6.637-1.508 9.12-1.439 1.372.037 2.729-.604 3.359-.48 1.18.23 1.24,2.21 2.4.96z" fill="#fff"></path>
	<path d="m79.68,139.79c-3.82-1.347 1.96-4.079 0-6.721 2.342-2.787 4.401-1.577 4.32.96-.074,2.33-4.327,3.81-4.32,5.76z" fill="#fff"></path>
	<path d="m61.92,140.27c-5.002-2.482-7.237,1.099-8.64,4.8-6.379-.177-25.516-12.631-24.48,3.84 3.707,4.934 8.52-5.334 12,.96-1.449.541-4.247-.907-4.32,1.921-3.486.088-8.295.533-8.64,3.359-4.406-1.849-9.019,2.92-7.2,9.12-.968,1.432-2.432,2.368-3.36,3.84-.404,4.884 2.144,6.816 2.4,11.04-1.478.336-.923.336-2.4,0-3.117,7.516 3.316,11.421 5.28,16.8-.868.893-2.424,1.097-3.84,1.44-1.051-2.148-2.908-3.492-3.84-5.76-1.778.288-2.783.79-3.84-.48-2.377,3.791-4.615,9.984-11.04,8.16 1.943-6.856 6.549-11.051 9.6-16.8 2.245-.795 3.515-2.565 5.76-3.36 .272-4.272-1.604-6.396-.96-11.04 1.175-1.865 2.959-3.121 3.84-5.28-2.021-7.915 5.771-9.604 9.12-12.479 .082-2.002-1.472-2.368-1.44-4.32 1.9-1.829 2.463-4.857 4.32-6.72 .719-.721 2.484-.396 2.4-1.92 6.054,1.849 14.122,3.025 19.2,6.24 1.216-.864 1.63-2.53 1.92-4.32 1.719-2.46 7.564-2.71 8.16.96z"></path>
	<path d="m59.04,149.39h1.44c.476,1.284.989,2.531.96,4.32-2.167.232-1.734,3.065-4.8,2.399 1.047-2 2.243-3.84 2.4-6.72z" fill="#fff"></path>
	<path d="m51.84,152.75c1.222.059 1.861.698 1.92,1.92-.563-.72-1.995-.57-1.92-1.92z" fill="#fff"></path>
	<path d="m58.56,163.31c1.324.436 3.371.149 4.32.96-.394,2.13-4.381.46-4.32-.96z"></path>
	<path d="m125.76,169.55c-4.948.331-7.431,3.13-11.04,4.8-1.904.656-1.507,3.613-4.32,3.36 .641-4.2 7.722-6.009 10.561-9.601 2.37.09 4.57-1.42 4.8,1.44z"></path>
	<path d="m132.48,173.39c-1.048,2.733-6.824,6.1-12,6.24-1.837.05-5.323.16-6.239-1.92 4.756.147 13.503-.679 16.8-4.801 .39.25.78.5 1.44.48z"></path>
	<path d="m59.52,182.03c-6.312-1.021-10.802-6.346-17.28-6.72-6.353-.366-11.839,5.25-18.72,3.84-.357-1.478 1.317-.922.96-2.4 9.124.665 13.287-5.052 23.04-2.399 2.718,3.84 10.025,3.09 12,7.68z"></path>
	<path d="m59.52,176.75c1.859.541 3.864.937 5.28,1.921-.915,1.82-5.373.3-5.28-1.92z"></path>
	<path d="m59.04,183.47c-.389,3.053-4.123,1.368-5.76.479 1.418-.57 4.302-1.47 5.76-.48z"></path>
	<path d="m128.64,19.307c-.804,2.396-3.798,2.602-5.76,3.84-.421-1.971-.901-2.452-2.4-2.4-.227-1.507 1.292-1.269 1.44-2.4-2.514-.434-1.807,2.354-4.32,1.92-.203-1.003.329-1.271.48-1.92-2.465-.064-2.918,1.882-5.28,1.92-.052-2.452 2.488-2.312 2.88-4.32 4.304-.017 4.085-4.555 7.68-5.28 1.293,1.248-.587,1.448-.479,2.88 .441,1.308 1.5-.67 2.88,0-.331,1.291.992.928 1.44,1.44-.053.688-2.107,2.502 0,2.4 .17,2.022-3.2,2.21-1.921,3.84 1.15-.581 1.86-3.184 3.36-1.92z"></path>
	<path d="m145.92,19.307c.684.916 1.115,2.084 1.439,3.36-1.16-.438-1.27-1.929-1.44-3.36z" fill="#fff"></path>
	<path d="m139.2,56.747c.466.013.372.587.479.96 .386-.254.779-.501 1.44-.48v1.92c-.82-.617-1.89-.993-1.92-2.4z" fill="#fff"></path>
	<path d="m127.2,2.987c4.438-2.079 9.897,1.948 12,5.28 1.156.196 1.043-.877 2.399-.48 .984,1.416 2.134,2.667 3.84,3.36 2.664,6.457 6.208,14.591 6.24,22.08-1.505-.575-1.778-2.382-1.92-4.32-2.52.041-1.876,3.244-4.32,3.36-.188-3.229 2.908-3.172 3.36-5.76 .35-1.31-.954-.966-.96-1.92-2.19.53-1.592,3.849-3.84,4.32 .372-1.867.55-3.929 1.92-4.8-.206-.914-1.034-1.206-.96-2.4-2.216-.296-2.763,1.078-4.8.96 .018-2.21.344-2.791-1.921-4.32 2.229-1.622-3.287-5.984.48-7.68-2.263-1.737-4.618-3.382-6.72-5.28 .472,1.919.472,2.881 0,4.8-3.606,1.509-4.813-1.768-9.12-.96 .607-1.888-1.133-1.428-2.4-1.44-.203-1.003.329-1.271.48-1.92-1.469-.349-1.412.828-2.88.479-1.126-.914 1.389-3.561-1.92-2.88 .157-1.122.576-1.983.96-2.88 4.39.833 9.25-.672 10.08,2.401zm20.16,19.68c-.324-1.276-.756-2.444-1.439-3.36 .17,1.431.28,2.922 1.44,3.36z"></path>
	<path d="m90.24,19.787c2.442.546 6.11-4.029 8.159-.48 .393,1.833-1.021,1.858-1.92,2.4 .148,1.132 1.667.893 1.44,2.4 1.404-1.43 1.657-1.156 4.32-.96 .165,2.085-1.161,2.679-1.44,4.32 2.528-.517 5.614-4.621 9.12-5.76 2.487,2.589-1.849,4.668-2.88,6.72-4.727,1.033-5.451,6.069-11.04,6.24-1.405.125-1.475-1.085-2.88-.96-2.873,1.819-6.978,3.788-8.64-.48-1.264.236-1.617,2.646-2.88,1.44v-2.4c-.851.589-2.53.35-2.88,1.44-2.184-.536-3.985-1.455-3.84-4.32-1.763.316-3.291.882-4.32-.48 .95-3.85 2.955-6.645 4.32-10.08 .085-1.686-1.621-1.579-1.92-2.88 .514-5.246 6.119-5.401 6.72-10.56 1.354-.245 2.155-1.045 2.4-2.4 4.301-1.499 9.965-3.47 16.319-2.88 .044,2.415-3.343,2.851-5.76,4.32-3.515,2.136-7.033,3.918-4.32,6.72 5.372-.389 7.832-3.688 12.96-4.32-.785,5.775-7.635,5.486-11.521,8.16 1.1.5 1.334,1.866 2.4,2.4-.559.88-1.254,1.625-1.919,2.4zm-2.4-3.36c1.4.706 1.4-2.146 0-1.44v1.44zm-1.44,1.44c.027-.292.072-.568.48-.48-.054-.585-.144-1.136-.96-.96 .075.565-.083,1.363.48,1.44z"></path>
	<path d="m64.32,68.267c1.864.104.623-2.897 2.4-2.88 1.613,2.219-2.99,6.771.48,10.08 8.166-2.415 16.639,4.773 25.92,5.76 .153,4.102 5.104,7.66 1.92,12 2.407,5.933.234,13.167-.96,19.68 1.617,1.422 3.862,2.217 3.84,5.28 2.165-.555 3.18-2.26 3.84-4.32 2.752.352 3.537-1.263 5.76-1.44-.459,1.739 2.072.488 2.4,1.44 .232,1.833-.137,3.064-.96,3.84-2.436-.938-5.059-2.154-7.68-.48 .812,1.587 3.236,1.563 2.399,4.8 2.535-.274 3.816,1.819 6.24,2.88 .106-2.506-2.649-2.15-3.84-3.36 .709-1.931 5.661-.38 5.76,1.44 2.204.26 3.353-.202 4.8,1.44 1.505-.694 3.58-2.175 4.8-.48-.328,3.229-2.657,2.116-4.319,3.36 .1,2.957 2.369,3.191 0,5.28-2.48.08-2.218-2.583-4.801-2.4-3.055,1.745-1.617,7.982-7.68,6.72 .791-1.929 4.197-1.243 4.8-3.359-4.493.797-12.262,2.256-16.8,2.399 .879,1.842 4.093,1.348 5.28,2.88 7.006-.692 16.531,1.255 22.56-.96 .472.649 1.281.96 1.92,1.44-.425,5.099-2.975,12.748-2.88,19.2 .338-3.482 5.066-5.918 6.24-10.08 1.512.231 1.087-1.474 2.88-.96 3.428-6.812 3.419-17.062 4.8-25.92 3.229.692.36,5.262.48,8.16 .229,5.537-1.17,14.538-4.8,18.239 3.412,1.382 3.826-4.092 6.72-4.8 1.318-5.081 6.439-6.359 6.24-12.96 2.506-1.73 3.804-5.382 4.319-8.64 2.12-13.385.176-26.388 1.92-38.88-1.016-.641-2.707,1.173-4.319-.48 2.563-4.83-.742-7.725-.96-12.479 4.148.035.192,2.7 2.88,3.36 .394-2.268 1.4-.938 2.399-2.4-1.48-2.199-6.154-1.206-7.199-3.84 1.324-1.084 2.82.733 4.319.96-1.11-1.609-3.092-2.348-4.8-3.36-.905-.746.688-1.871-.479-2.88-2.888-.312-3.167-3.233-4.801-4.8 .047-2.193 1.893-2.588 1.44-5.28 .816-.176.905.375.96.96 1.685-.394-1.663-3.471.96-3.36 .75,1.24-.646,3.986 1.44,4.8 1.078-.202.013-2.547.96-2.88 2.114.048 1.966-1.606 3.359,0v-3.36c1.988,1.224 1.625.88 3.36.96-.78,1.573.108,1.835 0,3.84-1.103-.102-4.357,1.257-6.72,1.44 .518,1.882 3.264,1.536 4.8,2.4 .153,1.113-.077,1.843-.48,2.4-1.019.962-2.139-.682-3.359-.96-.188,2.732 2.617,3.2 3.84,1.92 .703,1.469.129,2.5-.48,3.84-1.515.235-1.694-.865-3.359-.48 .092,2.34 1.697.189 1.92,2.4 1.132-.148.893-1.667 2.399-1.44 1.545.695 1.135,3.346 1.92,4.8 2.723-.478.236-6.164 3.841-5.76-2.271-1.89-1.868-6.452-2.881-9.6 .439-.841.893-1.667 2.4-1.44 .369-1.809-.586-2.294-.479-3.84 1.31-.043.966.799 1.92,0-2.154-3.077-1.202-4.341-1.92-7.68 .914.206 1.205,1.034 2.399.96 1.14-.3-.074-2.955.96-3.36 4.123,1.846.644,9.555 2.88,13.92 .21.712.614-.189 1.44,0-.852,1.229-.852,3.309-1.44,4.8 .34,1.261 2.253.947 2.88,1.92-.202.918-.174,2.066-1.439,1.92 1.934,5.101 4.775,10.732 4.8,16.8 .02,4.972-2.521,9.464-1.92,14.4-.846.435-.793,1.767-1.92,1.92-.399,7.408-6.307,10.148-10.561,14.88 1.521,10.687-5.051,18.909-.479,26.88 1.356-.396 1.243.677 2.4.479 .489.631.47,1.77.96,2.4 3.234.925 4.094,4.227 7.68,4.8 .658,2.541 3.079,3.321 5.28,4.32 .904.746-.688,1.87.479,2.88 1.273.153-.449-2.689 1.44-1.92 .38,1.66-.534,2.026-.96,2.88-6.338-1.662-9.438-6.562-14.88-9.12-.421,1.541 1.244.995 1.439,1.92-.36,2.272.325,5.265 0,7.2-.86,5.124-4.309,9.821-5.76,14.88-.425,1.481-.024,3.396-.48,4.8-1.138,3.507-3.732,7.02-4.8,10.561-.885,2.935-.36,6.081-2.399,8.64-1.177.268-2.532.606-4.32,0-.814-3.455 2.682-6.104 2.88-10.08-5.152,2.369-9.444,9.754-15.84,12.48-.369-2.684 2.943-3.445 4.319-4.801 .474-.466.463-1.483.961-1.92 2.164-1.9 4.944-3.139 7.199-4.8 1.896-1.396 3.423-3.354 5.28-4.8 2.761-10.519 7.863-18.697 10.56-29.28-2.574-3.985-3.88-9.239-4.8-14.88-2.608,2.191-3.704,5.896-4.8,9.601-2.522.812-3.076,3.151-4.8,5.279-4.393,5.423-11.222,8.257-15.84,13.92-1.531-.284-1.484.901-2.4,0-1.769,2.071-.95,6.729-4.319,7.2 .417-2.883 2.852-5.423 1.92-8.16 4.027-4.428 5.17-13.012 4.319-19.68-18.533.757-38.458.491-57.12,2.4 .845,8.915 3.529,15.99 6.72,22.56 1.054.866 1.967,1.873 3.36,2.4 .965,5.754 6.835,6.604 9.6,10.56 .418,1.858-2.096.784-1.44,2.88 2.013.703 6.701,1.08 10.561.96 .861-.026 1.635-.994 2.399-.96 .78.035 1.616,1.005 2.4.96 .941-.054 2.266-.81 3.359-.96 3.337-.459 5.388.396 7.2-1.439-1.284-1.635.094-3.815.48-5.28 2.583-.616 3.552-2.848 5.279-4.32 2.112,1.612-2.216,4.721-3.84,5.761 1.254,6.266 6.387,8.653 8.16,14.399-4.126-1.634-5.21-6.31-8.16-9.12-2.438-.357-2.267,1.894-4.319,1.92 .273,2.287 1.716,3.403 2.399,5.28-1.402,5.731-8.651,5.516-12.479,5.28-1.685.132 1.204,1.788-.48,1.92-1.776.336-1.197-1.683-1.92-2.4-3.863,1.994-8.004,2.488-12.96,2.4-.435-3.122-3.647-1.126-6.24-1.44-.845-5.346-1.691-11.905.96-15.84 2.123-.651 1.505,1.445 1.92,2.4 1.085,2.495 2.126,6.624.48,11.04 1.351,1.849 4.526,1.873 7.2,2.399 2.705-3.694 5.42-7.379 9.12-10.08-4.511-1.664-11.518,1.704-14.88-1.439-.614-1.786-.752-4.048-1.44-5.761-4.354,1.274-5.384-3.102-9.6-3.359-1,1.031 2.166,1.971 2.88,2.88 .216,2.776-1.366,3.755-1.92,5.76-1.641.085-3.438,1.602-4.8.48 .215,2.455-1.146,3.333-1.44,5.279 .588,1.972 2.379,2.741 1.92,5.761-3.421.54-2.342-3.419-3.36-5.28-6.077,3.914-11.321-2.422-16.8-.96 1.372,2.851 3.411,7.385 3.36,10.08-4.366-.594-3.662-6.258-4.8-10.08-4.129.19-4.754,3.886-8.64,4.32-1.001,1.691-3.853,3.645-6.24,2.399-.422-1.542 1.582-.657 1.44-1.92-2.901.341-4.578-.542-5.28-2.399 2.475.706 6.929.178 10.08-.961-.379-1.799-1.679-.029-2.4-.96v-2.399c4.948-.203 9.1-2.069 13.44-1.92 5.405.186 9.873,4.588 15.36,2.88 1.34-1.22 1.7-3.42 2.4-5.28 1.192.624 1.992-1.408 2.4,0 1.399-1.787 3.031-.701 3.84-3.359-4.934-6.586-13.392-9.648-21.12-13.44-6.928.02-9.679,1.434-16.8,1.44-2.117,1.391-5.275,1.598-7.2.96-.629-2.069 2.285-.595 1.92-2.4 1.113-.153 1.843.077 2.4.48 3.367-2.403 8.66-.979 12.96-3.36 8.042-.362 12.762,2.598 18.72,4.32 .268.979 1.444.94.48,1.92 3.464-1.129 7.506.207 7.68-4.801-2.591-.384-5.908-3.075-9.6-3.84 .411-1.531-.756-1.484-.96-2.399-5.496-1.545-10.229-3.852-14.88-6.24 .951-2.806 3.292,1.142 4.8-.48 1.295,1.105 1.986,2.814 4.8,2.4 .74-1.139-4.272-3.345-1.44-5.28 1.199,3.441 3.958,5.322 7.2,6.721 1.217-2.903.785-4.587 1.44-8.16-1.766.53-3.641,3.572-4.32,0 2.727.006 3.561-1.88 6.24-1.92-.335-2.02-2.186.459-2.4-1.44-.061-.86.587-1.013.48-1.92 3.46,1.095 8.775-.121 13.92-.479-2.649-3.106-3.65-6.66-4.8-12-1.318-6.123-4.769-12.438-5.76-17.76-.138-.74.636-.907.48-1.44-.837-2.868-2.456-5.719-4.8-7.2-1.466-12.69-7.352-22.164-6.72-35.52 .897-.383 1.758-.802 2.88-.96-.119-4.201-2.364-6.276-2.4-10.56-.471-.648-1.281-.959-1.92-1.44-.096-3.532 1.047-6.383.96-11.04 .954-.006.61-1.31 1.92-.96-.25-2.368.266-4.127.96-6.24 1.09-3.318 2.343-8.322 4.32-12.48 .628-1.322 1.775-2.471 2.4-3.84 .675-1.48.856-3.432 1.44-4.32 .701-1.066 2.871-1.139 2.4-2.88 5.009-.911 9.961-1.879 11.52-6.24 .427.373 1.084.516 1.92.48 .761,4.441-4.617,2.743-3.84,7.2-.914.206-1.206,1.034-2.4.96 1.27,2.85-1.804,5.133-3.84,6.24 .987,1.752-.215,2.155-.96,3.36 .79,1.564 2.604-.878 3.36.48 .651,2.092-1.144,1.736-1.44,2.88 .153,1.127.758,1.802.48,3.36-2.483,2.477-4.082,5.838-6.72,8.16 .877,2.458-1.414,5.523-2.4,7.68 2.254.494 1.278-2.242 3.36-1.92-.083,2.825-.234,3.823 1.92,2.4-.876,4.579-.906,8.265-1.92,12 2.444.684.916-2.604 3.36-1.92 1.111,3.593-3.032,8.528-1.441,11.997zm1.44-46.56c.431-.076.246-2.655-.48-.96-.123.286.196,1.01.48.96zm75.36,37.44v-1.92c-.661-.021-1.055.227-1.44.48-.107-.373-.014-.947-.479-.96 .03,1.407 1.1,1.783 1.92,2.4zm11.04,4.8c.042,1.929-1.238,4.304 0,6.72 .741-3.918 4.124-7.5 6.72-6.72-1.57-3.186-4.72-2.19-6.72,0zm1.92,10.08c.383,1.697 2.802,1.357 3.359,2.88 .638,1.795-.058,3.22 0,4.32 .121,2.291.125,7.834-2.399,9.6 1.333-4.468-2.587-.849-2.88-3.84 1.208-1.352 3.072-2.047 2.88-4.8-.619-.661-2.085-.475-3.36-.479-.423-1.338-.599-2.921-1.44-3.84-1.062,9.06-.911,17.194-.96,25.44 .373.107.947.013.96.48 9.667-8.466 12.21-22.044 9.12-36.96-.907.108-1.059-.541-1.92-.48-1.11,2.569-2.8,4.554-3.36,7.677zm-7.68,5.28c-.027-.292-.071-.568-.479-.48-.146,1.266 1.002,1.238 1.92,1.44-.144-.943.648-.952.96-1.44-.825-.615-.595-2.285-1.92-2.4-.28.844.58,2.82-.48,2.88zm-74.88,2.88c2.426.035 2.746-.607 4.8,0-.406-1.729-4.535-1.975-4.8,0zm-7.2,5.28c1.17,1.069.479,4.001 2.4,4.32-.517,3.94-.881,11.714 1.92,13.92 1.962,5.405-.442,16.752 4.8,18.72 .929-2.751.343-7.017 2.88-8.16 1.46,2.717.559,4.843-.48,7.2 3.792.271 3.292-3.749 7.68-2.88-1.071-2.099-2.59-2.177-2.88-4.32-.661-4.89 3.48-5.666 5.28-7.68 .503-.563.993-2.244 1.44-2.88 .659-.939 1.309-1.791 1.92-2.4-.176-3.055.854-4.906.479-8.16-2.436-.124-2.399-2.721-4.8-2.88-.182-2.102 1.372-2.468 1.44-4.32-3.137-1.332-4.285,2.494-8.64,1.44-.132.841 1.352,2.395 0,2.88-7.191,2.025-7.693-2.865-11.04-5.76 .494,1.61-1.492.744-2.399.957zm9.6,43.203c.832-2.957-.086-4.803-2.4-5.76-.09,2.81.985,4.45 2.4,5.76zm30.72-2.4c-.631-.123-1.987.518-3.359.48-2.483-.068-9.904-.999-9.12,1.439 1.693-.418 3.623.641 6.239.48 .965-.06 1.732-.854 2.881-.96 1.734-.162 4.721,1.496 5.76-.48-1.16,1.25-1.22-.73-2.4-.96zm-20.64,5.76c.081-2.537-1.979-3.747-4.32-.96 1.96,2.642-3.82,5.374 0,6.721-.007-1.95 4.246-3.43 4.32-5.76zm-27.36,22.08c3.066.666 2.633-2.167 4.8-2.399 .029-1.789-.484-3.036-.96-4.32h-1.44c-.157,2.88-1.353,4.72-2.4,6.72zm-2.88-1.44c-.059-1.222-.698-1.861-1.92-1.92-.075,1.35 1.357,1.2 1.92,1.92z"></path>
	<path d="m157.44,66.347c.861-.061 1.013.588 1.92.48 3.09,14.916.547,28.494-9.12,36.96-.013-.467-.587-.373-.96-.48 .049-8.246-.103-16.38.96-25.44 .842.919 1.018,2.502 1.44,3.84 1.275.005 2.741-.182 3.36.479 .192,2.753-1.672,3.449-2.88,4.8 .293,2.991 4.213-.628 2.88,3.84 2.524-1.766 2.521-7.31 2.399-9.6-.058-1.1.638-2.524 0-4.32-.558-1.522-2.977-1.183-3.359-2.88 .56-3.125 2.25-5.11 3.36-7.682zm-3.84,31.68c.922-1.213 3.472-4.64 1.44-5.76-.86,1.269-3.96,4.149-1.44,5.76z" fill="#fff"></path>
</g>
</svg>
